<svg xmlns="http://www.w3.org/2000/svg" viewBox="0 0 64 64" fill="none">
  <!-- Quyển sách mở -->
  <path d="M12 8C10.3431 8 9 9.34315 9 11V53C9 54.6569 10.3431 56 12 56H20V8H12Z" fill="#3B82F6"/>
  <path d="M52 8C53.6569 8 55 9.34315 55 11V53C55 54.6569 53.6569 56 52 56H44V8H52Z" fill="#2563EB"/>
  <path d="M20 8H44V56H20V8Z" fill="#1E40AF"/>
  <!-- Trang sách -->
  <line x1="32" y1="8" x2="32" y2="56" stroke="#FFFFFF" stroke-width="1" opacity="0.3"/>
  <line x1="26" y1="20" x2="38" y2="20" stroke="#FFFFFF" stroke-width="0.8" opacity="0.4"/>
  <line x1="26" y1="28" x2="38" y2="28" stroke="#FFFFFF" stroke-width="0.8" opacity="0.4"/>
  <line x1="26" y1="36" x2="38" y2="36" stroke="#FFFFFF" stroke-width="0.8" opacity="0.4"/>
  <!-- Gáy sách -->
  <rect x="20" y="8" width="24" height="48" fill="#1E3A8A" opacity="0.2"/>
</svg>

